<svg version="1.0" xmlns="http://www.w3.org/2000/svg" width="80" height="80" viewBox="0 0 1080 1050"><path fill="#4285F4" d="M545.7 136.9c-1.5 2.2-2.7 4.3-2.7 4.5 0 .2-5.9 10.7-13.2 23.3-15.2 26.4-20.8 36.4-20.8 37.1 0 .3-.6 1.3-1.4 2.1-.7.9-2.9 4.5-4.8 8.1-3.4 6.3-21.6 38-29.2 50.8-2.1 3.5-4.6 8.3-5.7 10.8-2.4 5.2-2.5 5 8.5 23.9 3.8 6.6 7.4 12.9 8 14 6.4 11.3 14.6 25.3 18.1 31.2 2.4 4 5.8 9.8 7.5 13 1.8 3.2 4.5 7.7 6.1 10.1 1.6 2.4 2.9 4.5 2.9 4.7 0 .2 2.9 5.3 6.4 11.2 3.5 5.9 12.8 21.8 20.6 35.3 7.9 13.5 16.3 27.8 18.7 31.7 2.3 4 4.3 7.5 4.3 7.9 0 .3 1.4 2.5 3 4.9 1.7 2.4 3 4.6 3 4.9 0 .2 2.3 4.4 5.1 9.3 4.6 7.8 13.9 23.9 37.8 65.2 3.9 6.8 8 13.6 9.1 15.1 1.1 1.6 2 3 2 3.3 0 .6 21.8 38.8 23 40.2.4.5 1.8 2.8 3 5 1.3 2.2 3.4 6 4.8 8.5 1.4 2.4 4.9 8.4 7.8 13.3 3 4.9 5.4 9.1 5.4 9.2 0 .5 14.6 25.9 19.7 34.4 2.5 4.1 5.3 8.8 6.3 10.5.9 1.7 4.1 7.1 7 12.1 2.9 4.9 6 10.3 7 12 .9 1.6 5.9 10.2 11 19 8.9 15.3 17.6 30.4 22.5 39 1.2 2.2 4.6 8 7.5 13 2.9 4.9 5.6 10 6.1 11.2l.8 2.3-155.7.2c-98 .2-155.7.7-155.7 1.3 0 .9 9.9 4.5 22 7.9 3.3 1 9.6 2.8 14 4.2 11.5 3.5 19.9 6 28.5 8.4 4.1 1.1 11.6 3.4 16.5 4.9 5 1.6 11 3.4 13.5 4.1 8.9 2.5 10.6 3 18.5 5.6 8.4 2.8 9.3 3 21.5 6.2 7.4 2 22.6 6.7 26.5 8.2 1.1.5 4.3 1.4 7 2 2.8.7 7.7 2.1 11 3.1 3.3 1.1 7.6 2.4 9.5 3 1.9.6 4.4 1.4 5.5 1.9 1.1.4 3.8 1.3 6 1.9 5.1 1.3 24.2 7 27.5 8.1 1.4.4 5.9 1.8 10 3 10.8 3.1 12.5 3.7 22.5 6.8 5 1.6 11 3.5 13.5 4.2 2.5.7 7 2 10 3 3 .9 10.2 3.2 16 5 5.8 1.8 13 4.1 16 5.1 3 .9 11.6 3.6 19 5.9 7.4 2.3 18.7 5.9 25 8 6.3 2 13.5 4.3 16 5 10 2.8 11.6 3.3 13.5 4 1.1.4 3.8 1.3 6 1.9 2.2.7 4.9 1.6 6 2.1 1.1.4 4 1.3 6.5 2 4.6 1.2 13.3 3.7 25 7.3 3.6 1 7.3 2.3 8.2 2.8 1 .5 2.4.9 3.1.9.8 0 4.3.9 7.8 2s9.6 3 13.4 4.1c3.9 1.2 7.8 2.5 8.7 3 1 .5 2.7.9 3.7.9 1.1 0 3 .4 4.3.9 1.3.5 4.1 1.4 6.3 1.9 2.2.6 8.5 2.5 14 4.1 5.5 1.7 11.6 3.5 13.5 4 1.9.6 8 2.4 13.5 4 5.5 1.7 11.6 3.6 13.5 4.1 8.4 2.4 17.7 5.2 19.6 6 1.2.5 4.2 1.2 6.8 1.5l4.6.7v-7.4c0-7-.2-7.9-4-13.7-2.2-3.4-4-6.4-4-6.7 0-.3-.9-1.8-1.9-3.3-1.7-2.3-13.8-23-24.3-41.3-6.3-11.2-7.4-13.1-11.1-19.3-1.9-3.3-8.3-14.3-14.1-24.4-5.9-10.1-11.6-19.7-12.7-21.2-1-1.5-1.9-2.9-1.9-3.2 0-.6-9.1-16.3-26-45.2-6.8-11.6-14-23.9-16-27.5-7.3-12.8-30.2-51.8-33.6-57.2-1.3-2.1-2.4-4-2.4-4.2 0-.4-23.2-40.9-41-71.6-4-6.9-8.1-13.9-9.1-15.7-1-1.7-2.9-4.9-4.2-7-1.3-2.1-5.3-9-8.9-15.3-8.3-14.7-9.7-17.3-14.7-25.5-2.3-3.7-4.1-6.9-4.1-7.2 0-.3-1.4-2.9-3.2-5.7-1.7-2.8-4.8-8-6.8-11.6-3.5-6.3-16.8-29.1-25.3-43.5-2.3-3.9-4.7-7.9-5.3-9-6.9-12.1-30.3-52.8-36-62.7-4.1-7-7.4-12.9-7.4-13.2 0-.3-1.5-2.9-3.4-5.8-1.8-2.9-9.5-16.1-17.1-29.3-29.1-50.6-59.6-103.9-62.9-109.8-1.8-3.4-7.8-13.9-13.1-23.2-15.1-26.1-28.4-49.5-31.5-55-1.5-2.8-4.5-7.9-6.6-11.5-2-3.6-5.8-10.3-8.4-15-8.2-14.7-10.6-18.5-12.2-18.8-.8-.2-2.6 1.5-4.1 3.7z"/><path fill="#32C86E" d="M438.3 324.2c-.6.7-4.1 6.9-7.8 13.8s-8 14.5-9.5 17-3.9 6.5-5.2 9c-3.4 6-5.9 10.4-9.8 17-1.8 3-4.5 7.7-6 10.5-1.5 2.7-7.1 12.6-12.5 22-5.3 9.3-11.2 19.7-13 23-1.8 3.3-6.5 11.6-10.5 18.5s-9 15.4-11 19c-2 3.6-5.3 9.2-7.2 12.5-2 3.3-5.8 10-8.6 15-2.7 4.9-10.7 18.9-17.7 31-7 12.1-13.9 24.1-15.4 26.7-1.4 2.6-5 8.9-8 14s-6.7 11.8-8.4 14.8c-1.6 3-3.3 5.9-3.7 6.5-.4.5-3.4 5.5-6.6 11-3.1 5.5-8.2 14.3-11.2 19.5-3 5.2-6.3 10.8-7.2 12.5-1 1.6-6.7 11.5-12.7 22-6.1 10.4-11.2 19.4-11.4 20-.3.8-9.1 16-12.9 22.5-.5.8-2.5 4.2-4.3 7.5-1.9 3.3-9.1 15.9-16.1 27.9-6.9 12-12.6 22-12.6 22.2 0 .3-4.4 7.7-7.8 12.9-.6 1.1-1.5 2.7-1.9 3.5-.4.8-3.5 6.3-7 12.1-3.5 5.9-6.3 11-6.3 11.5 0 .4-.6 1.5-1.4 2.3-.7.9-2.7 4.1-4.3 7.1-3.7 6.7-4.1 7.5-19 33-11.3 19.5-19.4 33.6-24.3 42.5-3.8 6.9-11.1 19.5-19.7 34.3-4.6 7.8-8.3 14.4-8.3 14.7 0 .2-1.4 2.7-3.2 5.5-3.1 5-3.2 5.3-1.3 6.6 1.6 1.2 55.6 1.4 361.6 1.4 197.8 0 361.1-.3 362.8-.6 1.7-.4 3.1-1 3.1-1.4 0-1-7-3.3-15-5-3-.7-6.6-1.6-8-2-1.4-.5-4.7-1.3-7.5-2-2.7-.7-5.9-1.5-7-2-1.9-.7-14.9-3.6-21-4.6-1.6-.3-3.9-.9-5-1.4-1.1-.5-13.2-3.6-27-7-13.7-3.4-26.3-6.6-28-7.1-1.6-.4-7-1.8-12-2.9-9.7-2.3-15.6-3.8-19.5-5-1.4-.5-5-1.4-8-2-3-.7-6.8-1.6-8.5-2.1-5.3-1.5-15.9-4.1-19-4.6-1.6-.2-3.9-.8-5-1.3-2.2-.9-13.5-3.8-20-5.1-2.2-.4-5.8-1.2-8-1.8-2.2-.6-5.8-1.5-8-2-4.7-1.1-20.3-4.8-26-6.2-2.2-.5-6-1.3-8.5-1.8s-7.2-1.6-10.5-2.4c-9.2-2.3-22.5-5.3-38.5-8.7-8-1.7-17.2-3.8-20.5-4.5-6.2-1.5-31.8-7.1-39-8.5-2.2-.5-7-1.5-10.7-2.4-9-2.1-19.3-4.4-24.8-5.6-2.5-.5-8.8-2-14-3.3-5.2-1.3-12.2-3-15.5-3.6-3.3-.7-7.1-1.7-8.5-2.1-1.4-.5-6.8-1.8-12-3s-11.1-2.6-13-3.1c-13.2-3.2-16.8-4.2-19.5-4.9-1.6-.5-5.8-1.7-9.2-2.6-3.4-1-6.5-2.5-6.8-3.3-.3-.8 3.2-8 7.8-16 13.9-24 23.9-41.6 34.2-60.1 5.4-9.6 10.6-18.6 11.5-20 1-1.5 3-5.1 4.5-8 1.5-3 3.5-6.6 4.5-8 1-1.4 2.8-4.3 4-6.5 9.1-16.4 22-39.2 25.6-45.1 2.4-3.9 5.6-9.5 7.2-12.5 4.2-7.8 7.2-13 9.2-15.9.9-1.4 3.3-5.4 5.2-9 6.8-12.9 11.2-20 12.5-20
.6 0 3.3 3.9 6 8.7 2.6 4.9 6.9 12.3 9.5 16.6 2.6 4.3 4.8 8.1 4.8 8.3 0 .3 1.3 2.4 2.9 4.7 1.6 2.3 3.8 5.8 4.9 7.7 3.7 6.5 11.5 19.5 16.1 26.8 5 8 4.9 7.8 10.4 17.2 4.4 7.6 5.3 9 9 14.7 1.5 2.3 2.7 4.4 2.7 4.6 0 .3 1.8 3.5 4.1 7.2 4 6.7 5.8 9.8 10.7 18.5 1.4 2.5 3 4.8 3.6 5.2 1.7 1.2 163.4 1 164.1-.2.6-1-.2-2.7-10.4-20-4.1-6.9-10.4-17.7-14.1-24-12.5-21.4-16.1-27.5-17.1-29-1.8-3-19.2-32.6-21.7-37-7.2-12.8-17.2-30-35.2-61-7.9-13.5-19.2-33-25.2-43.5-6.1-10.4-11.7-20.1-12.7-21.5-.9-1.4-2.3-3.8-3.1-5.5-.8-1.6-5-8.7-9.2-15.8-4.3-7-7.8-12.9-7.8-13.2 0-.2-3.1-5.6-7-12-3.8-6.4-7-11.8-7-12 0-.2-1.7-3.2-3.9-6.7-5.7-9.3-24.9-42.2-30.6-52.3-1.3-2.2-9.3-16.3-17.9-31.3-8.6-15-15.6-27.6-15.6-28.1 0-1.1-3.4-4.1-4.7-4.1-.6 0-1.5.6-2 1.2z"/></svg>
