<svg id="SvgjsSvg1013" width="288" height="288" xmlns="http://www.w3.org/2000/svg" version="1.1" xmlns:xlink="http://www.w3.org/1999/xlink" xmlns:svgjs="http://svgjs.com/svgjs"><defs id="SvgjsDefs1014"></defs><g id="SvgjsG1015"><svg xmlns="http://www.w3.org/2000/svg" viewBox="0 0 1024 1024" width="288" height="288"><path fill="#086972" stroke="#071a52" d="M 959.500,888.581 C 951.250,885.667 932.575,879.141 918,874.080 C 903.425,869.019 877.325,859.899 860,853.814 C 826.661,842.104 788.445,828.916 750.500,816.025 C 737.850,811.728 715.575,803.833 701,798.482 C 669.928,787.074 654.323,781.543 625,771.547 C 613.175,767.516 592.250,760.313 578.500,755.540 C 564.750,750.767 542.025,742.881 528,738.016 C 467.515,717.033 427.731,702.919 425.210,701.551 C 422.750,700.216 424.440,700.076 443.500,700.029 C 476.725,699.948 588.870,704.024 663,708.008 C 672.625,708.525 687.700,709.199 696.500,709.506 C 705.300,709.813 714.865,710.307 717.754,710.604 C 724.046,711.252 725.421,709.531 722.565,704.582 C 721.587,702.887 716.482,693.625 711.219,684 C 705.956,674.375 695.807,656.150 688.666,643.500 C 675.804,620.715 664.207,600 631.281,541 C 621.920,524.225 609.186,501.500 602.985,490.500 C 576.143,442.885 529.498,359.199 481.755,273 C 463.630,240.275 446.426,209.450 443.526,204.500 C 435.149,190.203 433.764,187.080 434.494,184.134 C 434.853,182.685 438.432,175.650 442.445,168.500 C 446.458,161.350 455.282,145.375 462.052,133 C 468.822,120.625 476.468,106.675 479.043,102 C 481.618,97.325 488.782,84.275 494.962,73 C 506.369,52.190 507.700,50 508.942,50 C 509.326,50 510.762,52.138 512.134,54.750 C 513.506,57.362 518.025,65.575 522.177,73 C 526.329,80.425 537.060,99.775 546.024,116 C 554.988,132.225 569.087,157.650 577.356,172.500 C 592.655,199.976 593.992,202.391 609.457,230.500 C 614.299,239.300 618.594,246.950 619.002,247.500 C 619.410,248.050 627.284,262.225 636.499,279 C 657.189,316.663 655.772,314.097 676.264,351 C 700.289,394.264 707.214,406.771 720.007,430 C 726.217,441.275 739.035,464.450 748.491,481.500 C 757.948,498.550 773.027,525.775 782,542 C 806.323,585.979 817.794,606.645 822.516,615 C 824.848,619.125 835.198,637.800 845.517,656.500 C 855.836,675.200 867.311,695.900 871.018,702.500 C 874.725,709.100 884.400,726.425 892.517,741 C 900.634,755.575 911.670,775.375 917.040,785 C 944.376,833.991 975.700,890.701 976.281,892.250 C 977.210,894.727 976.386,894.546 959.500,888.581" class="color284BED svgShape colorStroke284BED svgStroke"></path><path fill="#a7ff83" stroke="#fbfbfb" d="M 58.002,869.250 C 58.003,868.838 60.857,863.325 64.344,857 C 86.627,816.587 117.999,759.765 145.229,710.500 C 162.557,679.150 192.706,624.475 212.228,589 C 250.420,519.599 280.876,464.475 333.777,369 C 378.255,288.726 395.528,257.518 401.994,245.750 C 404.940,240.387 407.680,236 408.082,236 C 408.484,236 420.870,258.163 435.605,285.250 C 450.340,312.337 466.522,341.912 471.564,350.972 C 480.654,367.307 480.717,367.466 479.006,369.972 C 478.057,371.362 472.881,380.375 467.505,390 C 462.129,399.625 453.802,414.475 449.001,423 C 430.555,455.755 420.121,474.614 418.848,477.500 C 418.120,479.150 416.996,480.950 416.350,481.500 C 415.704,482.050 406.526,498.250 395.954,517.500 C 385.382,536.750 360.307,582.200 340.230,618.500 C 289.208,710.751 279.580,728.117 273.293,739.251 C 270.264,744.614 268.004,749.569 268.270,750.262 C 268.551,750.994 287.133,756.061 312.627,762.357 C 336.757,768.316 358.525,773.812 361,774.570 C 363.475,775.328 368.200,776.598 371.500,777.390 C 382.029,779.918 511.741,812.635 532,817.873 C 542.725,820.646 568.150,827.212 588.500,832.465 C 608.850,837.718 640.350,845.882 658.500,850.607 C 676.650,855.332 699.984,861.376 710.354,864.037 C 720.724,866.698 729.462,869.129 729.771,869.438 C 730.080,869.747 579.059,870 394.167,870 C 209.275,870 58.001,869.662 58.002,869.250" class="colorFBFBFB svgShape colorStrokeFBFBFB svgStroke"></path><path fill="#17b978" stroke="#65f7bc" d="M 524.500,663.132 C 521.235,662.444 524.868,668.548 465.492,564 C 453.466,542.825 437.862,515.427 430.814,503.116 C 423.767,490.805 418.002,480.230 418.003,479.616 C 418.006,478.557 429.051,458.481 455.481,411.500 C 461.979,399.950 469.914,385.813 473.114,380.084 C 476.314,374.355 479.345,369.255 479.849,368.751 C 480.404,368.196 483.124,372.104 486.749,378.667 C 490.040,384.625 506.887,414.925 524.186,446 C 541.485,477.075 557.358,505.650 559.460,509.500 C 561.562,513.350 568.682,526.175 575.284,538 C 581.886,549.825 589.632,563.775 592.498,569 C 595.364,574.225 602.109,586.375 607.486,596 C 612.863,605.625 620.638,619.575 624.763,627 C 628.888,634.425 635.128,645.497 638.631,651.605 C 642.134,657.713 645,663 645,663.355 C 645,664.186 528.480,663.970 524.500,663.132" class="color65B9F7 svgShape colorStroke65B9F7 svgStroke"></path></svg></g></svg>