<svg xmlns="http://www.w3.org/2000/svg" width="1584" height="396" style="shape-rendering:geometricPrecision;text-rendering:geometricPrecision;image-rendering:optimizeQuality;fill-rule:evenodd;clip-rule:evenodd"><path style="opacity:1" fill="#462167" d="M-.5-.5h399l-177 396H-.5V-.5z"/><path style="opacity:1" fill="#331053" d="M398.5-.5h253a74043.852 74043.852 0 0 0-177 396h-253l177-396z"/><path style="opacity:1" fill="#1e0b37" d="M651.5-.5h252l-177 396h-252a74043.852 74043.852 0 0 1 177-396z"/><path style="opacity:1" fill="#0f0529" d="M903.5-.5h252c-58.98 131.97-117.98 263.97-177 396h-252l177-396z"/><path style="opacity:1" fill="#09011f" d="M1155.5-.5h428v396h-605c59.02-132.03 118.02-264.03 177-396z"/><path style="opacity:1" fill="#9c8aae" d="M214.5 121.5c-28.831-.667-57.831-1-87-1-29.341 0-58.341.667-87 2-.904-.709-1.237-1.709-1-3 58.67-.333 117.337 0 176 1-.124.607-.457.94-1 1z"/><path style="opacity:1" fill="#7c7a89" d="M1542.5 122.5c-28.66-1.333-57.66-2-87-2-29.17 0-58.17.333-87 1-.54-.06-.88-.393-1-1 58.66-1 117.33-1.333 176-1 .24 1.291-.1 2.291-1 3z"/><path style="opacity:1" fill="#f8fafb" d="M214.5 121.5c-8.634 15.647-17.3 31.313-26 47h-59c-.237 1.291.096 2.291 1 3a801.54 801.54 0 0 0 19 33 270.552 270.552 0 0 0 11-19c5.858-.322 11.525.011 17 1a956.706 956.706 0 0 1-28.5 51 6531.192 6531.192 0 0 1-45.5-80l74-2 10-18c.543-.06.876-.393 1-1a1773.72 1773.72 0 0 0-119 0c-2.26-1.386-3.094-.719-2.5 2A58083.759 58083.759 0 0 0 87.5 174c-.78 1.073-.613 2.24.5 3.5l1-1c9.243 16.783 18.409 33.45 27.5 50a7.248 7.248 0 0 1 2.5 2 337.83 337.83 0 0 0 10.5 20.5 18.251 18.251 0 0 1 4.5 5.5c-.128 1.945.038 3.778.5 5.5l-5 4 2 1c-2.507 4.3-4.507 3.8-6-1.5-1.189-.929-2.522-1.262-4-1l-81-140c28.659-1.333 57.659-2 87-2 29.169 0 58.169.333 87 1z"/><path style="opacity:1" fill="#f6f9f9" d="M1542.5 122.5a16272.89 16272.89 0 0 0-87.5 152 165.876 165.876 0 0 1-9-15c-.67-1.333-.67-2.667 0-4a5250.085 5250.085 0 0 0 67.5-119 1773.72 1773.72 0 0 0-119 0c.12.607.46.94 1 1 3.33 6 6.67 12 10 18l74 2c-15 26.818-30.17 53.485-45.5 80a2023.828 2023.828 0 0 1-29.5-52c6.09-.289 12.09.045 18 1 3.64 5.936 7.31 11.936 11 18a812.398 812.398 0 0 0 19-33c.9-.709 1.24-1.709 1-3h-59c-8.7-15.687-17.37-31.353-26-47 28.83-.667 57.83-1 87-1 29.34 0 58.34.667 87 2z"/><path style="opacity:1" fill="#ebeaf0" d="M69.5 136.5a5249.701 5249.701 0 0 0 67.5 119c.667 1.333.667 2.667 0 4a166.804 166.804 0 0 1-9 15 35.024 35.024 0 0 1-6.5-12c1.478-.262 2.811.071 4 1 1.493 5.3 3.493 5.8 6 1.5l-2-1 5-4c-.462-1.722-.628-3.555-.5-5.5a18.251 18.251 0 0 0-4.5-5.5 337.83 337.83 0 0 1-10.5-20.5 7.248 7.248 0 0 0-2.5-2 52377.947 52377.947 0 0 0-27.5-50l-1 1c-1.113-1.26-1.28-2.427-.5-3.5A58083.759 58083.759 0 0 1 67 138.5c-.594-2.719.24-3.386 2.5-2z"/><path style="opacity:1" fill="#b5a8c3" d="M69.5 136.5a1773.72 1773.72 0 0 1 119 0c-.124.607-.457.94-1 1a3480.157 3480.157 0 0 0-118-1z"/><path style="opacity:1" fill="#9e9ca8" d="M1513.5 136.5c-39.5-.332-78.84.001-118 1-.54-.06-.88-.393-1-1a1773.72 1773.72 0 0 1 119 0z"/><path style="opacity:1" fill="#beb4cb" d="m177.5 155.5-74 2c-.543-.06-.876-.393-1-1 24.991-1 49.991-1.333 75-1z"/><path style="opacity:1" fill="#aaa9b3" d="M1405.5 155.5c25.01-.333 50.01 0 75 1-.12.607-.46.94-1 1l-74-2z"/><path style="opacity:1" fill="#ac9fbc" d="M188.5 168.5a836.98 836.98 0 0 0-58 3c-.904-.709-1.237-1.709-1-3h59z"/><path style="opacity:1" fill="#93919e" d="M1394.5 168.5h59c.24 1.291-.1 2.291-1 3a837.206 837.206 0 0 0-58-3z"/><path style="opacity:1" fill="#beb4cb" d="M160.5 185.5c5.846-1.317 11.846-1.317 18 0-.124.607-.457.94-1 1-5.475-.989-11.142-1.322-17-1z"/><path style="opacity:1" fill="#a9a7b2" d="M1404.5 185.5c2.81-.665 5.81-.998 9-1 3.41.017 6.41.684 9 2a86.756 86.756 0 0 0-18-1z"/></svg>