<svg xmlns="http://www.w3.org/2000/svg" width="819" height="742" style="shape-rendering:geometricPrecision;text-rendering:geometricPrecision;image-rendering:optimizeQuality;fill-rule:evenodd;clip-rule:evenodd"><path style="opacity:.999" fill="#289d64" d="M460.5 67.5c1.306.967 1.973 2.3 2 4-77.667-.167-155.334 0-233 .5l-7 3.5a10.256 10.256 0 0 0-1.5 4l-1-1-1 3-1-1a4.934 4.934 0 0 0-.5 3 4.932 4.932 0 0 1-3-.5c1.238-.69 1.238-1.19 0-1.5 2.184-4.28 5.518-7.446 10-9.5a47.091 47.091 0 0 1 16-4c73.333-.5 146.666-.667 220-.5z"/><path style="opacity:1" fill="#21a161" d="M462.5 71.5v143h-79a17.758 17.758 0 0 0-1.5-7 60.41 60.41 0 0 0-14.5-13.5 28.778 28.778 0 0 0-11-2.5 5476.785 5476.785 0 0 0-148-1 2117.57 2117.57 0 0 0-1-92c.21-6.652 2.543-12.318 7-17 1.238.31 1.238.81 0 1.5.948.483 1.948.65 3 .5a4.934 4.934 0 0 1 .5-3l1 1 1-3 1 1a10.256 10.256 0 0 1 1.5-4l7-3.5c77.666-.5 155.333-.667 233-.5z"/><path style="opacity:1" fill="#31c684" d="M706.5 98.5a3363.08 3363.08 0 0 0-1 116h-243v-143c-.027-1.7-.694-3.033-2-4a8260.031 8260.031 0 0 1 216 .5c14.571 1.906 24.404 9.739 29.5 23.5.497 2.31.663 4.643.5 7z"/><path style="opacity:1" fill="#54aa72" d="M207.5 98.5a2117.57 2117.57 0 0 1 1 92c49.503-.332 98.836.001 148 1-83.001-.114-166.001-.447-249-1a2450.637 2450.637 0 0 1 99-1c-.331-30.505.002-60.838 1-91z"/><path style="opacity:1" fill="#11864a" d="M107.5 190.5c82.999.553 165.999.886 249 1 3.819.105 7.486.938 11 2.5a60.41 60.41 0 0 1 14.5 13.5 17.758 17.758 0 0 1 1.5 7l1.5 9c.5 45.332.667 90.665.5 136v1c.167 46.335 0 92.668-.5 139a27.603 27.603 0 0 1-1.5 5v1c-4.84 10.335-12.84 16.835-24 19.5l-155 1c.556.383.889.883 1 1.5-39.668.167-79.335 0-119-.5-17.251-1.585-28.085-10.751-32.5-27.5-.5-30.998-.667-61.998-.5-93a4029.02 4029.02 0 0 1 1.5 90c.174-92.681.674-185.348 1.5-278-.02-1.226-.353-2.226-1-3 3.18-11.156 10.18-18.989 21-23.5a178.501 178.501 0 0 1 31-1.5z"/><path style="opacity:1" fill="#0f7841" d="M383.5 214.5h79v145h-77c.167-45.335 0-90.668-.5-136l-1.5-9z"/><path style="opacity:1" fill="#21a564" d="M706.5 98.5v261h-244v-145h243a3363.08 3363.08 0 0 1 1-116z"/><path style="opacity:1" fill="#fbfdfc" d="M182.5 447.5c-12.712.646-25.045-.02-37-2a5746.131 5746.131 0 0 0 55-87l-57-88a254.022 254.022 0 0 1 39-.5 5325.77 5325.77 0 0 1 37.5 58.5 5325.77 5325.77 0 0 1 37.5-58.5 241.183 241.183 0 0 1 38 .5 12395.033 12395.033 0 0 0-56 88.5 6088.17 6088.17 0 0 0 56 88 254.022 254.022 0 0 1-39-.5 3200.403 3200.403 0 0 0-36.5-57 2821.802 2821.802 0 0 0-37.5 58z"/><path style="opacity:.502" fill="#11723e" d="M55.5 215.5c.647.774.98 1.774 1 3a39503.614 39503.614 0 0 0-1.5 278 4029.02 4029.02 0 0 0-1.5-90c-.167-61.668 0-123.334.5-185 .19-2.208.69-4.208 1.5-6z"/><path style="opacity:1" fill="#0e7941" d="M463.5 359.5h242v145h-242v-145z"/><path style="opacity:1" fill="#105c31" d="M385.5 360.5h77v144h-79a27.603 27.603 0 0 0 1.5-5c.5-46.332.667-92.665.5-139z"/><path style="opacity:1" fill="#318153" d="M385.5 360.5v-1h78v145h242v1h-322v-1h79v-144h-77z"/><path style="opacity:1" fill="#75ce9e" d="M145.5 445.5c11.955 1.98 24.288 2.646 37 2-12.827 1.16-25.827 1.327-39 .5.566-.995 1.233-1.828 2-2.5z"/><path style="opacity:1" fill="#105d2f" d="M383.5 505.5h322c.333 39.339 0 78.672-1 118l-2 8c-3.058 2.457-5.392 5.457-7 9l-6 3a302.819 302.819 0 0 0-15-4l-3 1c4.379 2.243 9.045 3.41 14 3.5a7.248 7.248 0 0 0-2 2.5 49169.292 49169.292 0 0 0-444 3 90.673 90.673 0 0 1-12.5-4c-2.954.094-3.121.594-.5 1.5-.556.383-.889.883-1 1.5-9.483-4.95-15.65-12.617-18.5-23a4785.678 4785.678 0 0 0-1.5-98c-.111-.617-.444-1.117-1-1.5l155-1c11.16-2.665 19.16-9.165 24-19.5z"/><path style="opacity:1" fill="#1b5b36" d="M705.5 359.5h1c.167 89.667 0 179.334-.5 269-4.404 12.114-12.904 19.447-25.5 22a18497.919 18497.919 0 0 0-272-1h-169a49169.292 49169.292 0 0 1 444-3 7.248 7.248 0 0 1 2-2.5c-4.955-.09-9.621-1.257-14-3.5l3-1a302.819 302.819 0 0 1 15 4l6-3c1.608-3.543 3.942-6.543 7-9l2-8c1-39.328 1.333-78.661 1-118v-146z"/><path style="opacity:.993" fill="#4c6f59" d="M408.5 649.5c90.835-.333 181.502.001 272 1 0 .667-.333 1-1 1l-271-2z"/><path style="opacity:.215" fill="#316847" d="M239.5 649.5h169l271 2c-148.667.167-297.334 0-446-.5a39.98 39.98 0 0 1-8-2.5c.111-.617.444-1.117 1-1.5-2.621-.906-2.454-1.406.5-1.5a90.673 90.673 0 0 0 12.5 4z"/></svg>