<svg version="1.0" xmlns="http://www.w3.org/2000/svg" width="400" height="378.667" viewBox="0 0 300 284"><path d="M147.8 10.7c-2 2.2-18.2 31.8-20.9 37.9l-1.9 4.5 3.9 7.7C131 65 136 74.6 140 82c4 7.4 10.2 18.9 13.8 25.5 3.5 6.6 7.7 14.2 9.2 17 8.6 15.8 15.9 29.1 20.3 37.5 2.7 5.2 5.3 9.9 5.7 10.5.4.5 3.4 5.9 6.5 12 3.2 6 6.1 11.4 6.5 12 2 2.7 10.9 20.9 10.5 21.5-.2.4-1.5.6-2.7.5-1.3-.1-16-.6-32.8-.9-16.8-.4-35.1-.9-40.7-1.2-5.8-.3-10.4-.1-10.7.5-1 1.6 3.5 2 37.9 3 18.7.6 38.8 1.3 44.8 1.6l10.7.5-2.9-5.2c-1.7-2.9-22.3-41-45.9-84.6l-42.9-79.4 11.6-21.4c7.4-13.7 11.9-20.9 12.4-20.1.4.6 12.4 22.6 26.5 48.7 30.8 56.6 25.3 46.6 70.7 130 20.2 37.1 38.7 71.2 41.2 75.7 5.2 9.7 8.2 13.7 8.3 11.1 0-1.7-1-3.7-9.1-18.1-2.2-3.8-3.9-7-3.9-7.3 0-.2-3.8-7.2-8.4-15.6-4.6-8.4-9.9-18.2-11.8-21.8-2-3.6-7.2-13.3-11.8-21.5-4.5-8.3-8.7-15.9-9.2-17-.5-1.1-1.4-2.9-2.1-4-.7-1.1-3.4-6.1-6.1-11-2.7-5-6-11-7.4-13.5-1.3-2.5-3.9-7.2-5.7-10.5-8.9-16.4-15.5-28.5-18-33-7.2-13-8.6-15.6-12.8-23.7-2.6-4.7-5.6-10.3-6.8-12.5-1.2-2.1-4.4-8.1-7.1-13.3-2.8-5.2-5.4-10-5.8-10.5-.4-.6-2.6-4.6-5-9S161.4 24 159.8 21c-3.9-7.2-7.6-12-9.2-12-.7 0-2 .8-2.8 1.7z"/><path d="M112.3 74.2c-1.1 1.3-3.4 4.8-5 7.8-1.7 3-7.4 13.6-12.8 23.5s-10.1 18.4-10.5 19c-.4.5-3.2 5.7-6.2 11.5-3.1 5.8-6.7 12.5-8.1 15-4 7.2-13.8 25.1-16.7 30.5-7.6 14.4-12.7 23.7-16.2 29.8-2.1 3.8-3.8 7-3.8 7.2 0 .2-1.7 3.4-3.8 7.2-2.2 3.7-5.7 10.2-7.9 14.3-2.3 4.1-5.3 9.7-6.8 12.5-12 21.9-12.8 23.6-11.5 26 .7 1.3 1.9 2.6 2.7 3 2.1.7 206.3.7 211.3-.1 8.1-1.3 4.8-2.3-8.7-2.6-7.6-.2-56.5-.3-108.6-.2-80.3.2-94.8 0-94.3-1.2.3-.7 24.2-44.9 53.2-98.1 28.9-53.2 53.6-98.7 54.7-101 1.2-2.4 2.3-4.3 2.6-4.3.5 0 30.1 54.4 68.7 126.1l4.1 7.6-17.1-.4c-9.4-.2-19.1-.5-21.6-.6l-4.5-.2-13.2-24.5c-7.3-13.5-13.3-24.9-13.3-25.3 0-.5 1.1-2.3 2.4-4 3.6-4.9 16.8-30.6 16.4-31.9-.4-1.1-6.5 9.5-18.3 31.7-2.7 4.9-14.4 26.7-26.2 48.4-11.8 21.6-21.3 39.4-21.1 39.6.5.4 140.3 35.5 145.2 36.4 2.5.5 4.6.5 4.6.1 0-1.3-6.2-3.8-16-6.4-16.9-4.4-85.4-21.8-88-22.2-1.4-.3-3.8-.9-5.5-1.4-1.6-.6-9.9-2.7-18.3-4.9-8.4-2.1-15.5-4.1-15.8-4.4-.4-.3 1.5-4.6 4.1-9.4 2.7-4.8 6.4-11.7 8.3-15.3 1.9-3.6 5.4-9.9 7.7-14s4.8-8.9 5.7-10.5c2.3-4.8 8.9-16.6 11.5-20.9 2.8-4.4 2.5-4.6 8.3 5.9 1.8 3.3 4.1 7.3 5 9 .9 1.6 4 7.5 7 13 7.9 15 5.5 13.8 30 14.9 19.6.8 21.2.8 23-.9 1.1-1 2-2.2 2-2.8 0-1-7.1-15.3-11.1-22.4-3.2-5.7-26.8-49.3-32.9-60.8-2.9-5.5-7.3-13.8-9.8-18.5-2.5-4.7-6.7-12.5-9.3-17.5-8-15.2-11.3-18-15.6-13.3z"/><path d="M123.6 220.9c-.9 1.4 3.9 3.3 32.3 12.7 10.8 3.6 20.5 6.9 21.6 7.4 1.1.5 5.4 2 9.5 3.4s22.8 7.7 41.5 14.1c18.7 6.4 40.5 13.9 48.4 16.6 13.6 4.6 20.8 6.2 18.5 3.9-.5-.5-26.8-9.8-58.4-20.6-93.4-31.8-112.9-38.3-113.4-37.5z"/></svg>